<svg id="Layer_1" enable-background="new 0 0 511.971 511.971" height="512" viewBox="0 0 511.971 511.971" width="512" xmlns="http://www.w3.org/2000/svg"><g><path d="m488.616 179.417h-40.735v-70.927c0-59.822-48.669-108.49-108.49-108.49h-166.812c-59.821 0-108.489 48.668-108.489 108.49v70.927h-40.736v278.719h30.251v53.835h90.004v-53.835h225.251v53.835h90.003v-53.835h29.753zm-316.037-149.417h166.812c43.279 0 78.49 35.21 78.49 78.49v76.67c-23.959 10.545-40.736 34.498-40.736 62.309v43.616c-12.001-8.742-26.758-13.918-42.708-13.918h-156.904c-15.95 0-30.707 5.176-42.708 13.918v-43.616c0-27.811-16.777-51.765-40.735-62.309v-76.67c0-43.28 35.21-78.49 78.489-78.49zm-37.754 319.875c0-23.549 19.159-42.708 42.708-42.708h156.903c23.549 0 42.708 19.159 42.708 42.708v1.427h-242.319zm272.32-102.406c0-20.982 17.07-38.052 38.053-38.052h13.419v218.719h-405.263v-218.719h13.419c20.981 0 38.052 17.07 38.052 38.052v133.834h302.319v-133.834zm-293.536 234.502h-30.004v-23.835h30.004zm315.254 0h-30.003v-23.835h30.003z"/><path d="m180.981 200.638h30v30.002h-30z" transform="matrix(.707 -.707 .707 .707 -95.079 201.743)"/><path d="m300.989 200.639h30v30.001h-30z" transform="matrix(.707 -.707 .707 .707 -59.93 286.593)"/><path d="m180.981 110.633h30v30.002h-30z" transform="matrix(.707 -.707 .707 .707 -31.434 175.38)"/><path d="m300.989 110.633h30v30.001h-30z" transform="matrix(.707 -.707 .707 .707 3.713 260.231)"/></g></svg>