<?xml version="1.0" encoding="UTF-8" standalone="no"?>
<!-- Generator: Adobe Illustrator 18.0.0, SVG Export Plug-In . SVG Version: 6.00 Build 0)  -->

<svg
   xmlns:dc="http://purl.org/dc/elements/1.1/"
   xmlns:cc="http://creativecommons.org/ns#"
   xmlns:rdf="http://www.w3.org/1999/02/22-rdf-syntax-ns#"
   xmlns:svg="http://www.w3.org/2000/svg"
   xmlns="http://www.w3.org/2000/svg"
   xmlns:sodipodi="http://sodipodi.sourceforge.net/DTD/sodipodi-0.dtd"
   xmlns:inkscape="http://www.inkscape.org/namespaces/inkscape"
   version="1.1"
   id="Capa_1"
   x="0px"
   y="0px"
   viewBox="0 0 328.863 328.863"
   style="enable-background:new 0 0 328.863 328.863;"
   xml:space="preserve"
   sodipodi:docname="age-red.svg"
   inkscape:version="0.92.4 (5da689c313, 2019-01-14)"><metadata
   id="metadata54"><rdf:RDF><cc:Work
       rdf:about=""><dc:format>image/svg+xml</dc:format><dc:type
         rdf:resource="http://purl.org/dc/dcmitype/StillImage" /><dc:title></dc:title></cc:Work></rdf:RDF></metadata><defs
   id="defs52" /><sodipodi:namedview
   pagecolor="#ffffff"
   bordercolor="#666666"
   borderopacity="1"
   objecttolerance="10"
   gridtolerance="10"
   guidetolerance="10"
   inkscape:pageopacity="0"
   inkscape:pageshadow="2"
   inkscape:window-width="1366"
   inkscape:window-height="695"
   id="namedview50"
   showgrid="false"
   inkscape:zoom="0.71762404"
   inkscape:cx="164.4315"
   inkscape:cy="164.4315"
   inkscape:window-x="0"
   inkscape:window-y="0"
   inkscape:window-maximized="1"
   inkscape:current-layer="_x34_4-18Plus_movie" />
<g
   id="_x34_4-18Plus_movie">
	<g
   id="g4">
		<path
   d="M104.032,220.434V131.15H83.392V108.27h49.121v112.164H104.032z"
   id="path2"
   style="fill:#b3414b;fill-opacity:1" />
	</g>
	<g
   id="g8">
		<path
   d="M239.552,137.23c0,9.76-5.28,18.4-14.08,23.201c12.319,5.119,20,15.84,20,28.32c0,20.16-17.921,32.961-45.921,32.961    c-28.001,0-45.921-12.641-45.921-32.48c0-12.801,8.32-23.682,21.28-28.801c-9.44-5.281-15.52-14.24-15.52-24    c0-17.922,15.681-29.281,40.001-29.281C224.031,107.15,239.552,118.83,239.552,137.23z M180.51,186.352    c0,9.441,6.721,14.721,19.041,14.721c12.32,0,19.2-5.119,19.2-14.721c0-9.279-6.88-14.561-19.2-14.561    C187.23,171.791,180.51,177.072,180.51,186.352z M183.391,138.83c0,8.002,5.76,12.48,16.16,12.48c10.4,0,16.16-4.479,16.16-12.48    c0-8.318-5.76-12.959-16.16-12.959C189.15,125.871,183.391,130.512,183.391,138.83z"
   id="path6"
   style="fill:#b3414b;fill-opacity:1" />
	</g>
	<g
   id="g12">
		<path
   d="M292.864,120.932c4.735,13.975,7.137,28.592,7.137,43.5c0,74.752-60.816,135.568-135.569,135.568    S28.862,239.184,28.862,164.432c0-74.754,60.816-135.568,135.569-135.568c14.91,0,29.527,2.4,43.5,7.137V5.832    C193.817,1.963,179.24,0,164.432,0C73.765,0,0.001,73.764,0.001,164.432s73.764,164.432,164.431,164.432    S328.862,255.1,328.862,164.432c0-14.807-1.962-29.385-5.831-43.5H292.864z"
   id="path10"
   style="fill:#b3414b;fill-opacity:1" />
	</g>
	<g
   id="g16">
		<polygon
   points="284.659,44.111 284.659,12.582 261.987,12.582 261.987,44.111 230.647,44.111 230.647,66.781 261.987,66.781     261.987,98.309 284.659,98.309 284.659,66.781 316.186,66.781 316.186,44.111   "
   id="polygon14"
   style="fill:#b3414b;fill-opacity:1" />
	</g>
</g>
<g
   id="g19">
</g>
<g
   id="g21">
</g>
<g
   id="g23">
</g>
<g
   id="g25">
</g>
<g
   id="g27">
</g>
<g
   id="g29">
</g>
<g
   id="g31">
</g>
<g
   id="g33">
</g>
<g
   id="g35">
</g>
<g
   id="g37">
</g>
<g
   id="g39">
</g>
<g
   id="g41">
</g>
<g
   id="g43">
</g>
<g
   id="g45">
</g>
<g
   id="g47">
</g>
</svg>