<?xml version="1.0" encoding="UTF-8" standalone="no"?>
<!DOCTYPE svg PUBLIC "-//W3C//DTD SVG 1.1//EN" "http://www.w3.org/Graphics/SVG/1.1/DTD/svg11.dtd">
<svg version="1.1" xmlns="http://www.w3.org/2000/svg" xmlns:xlink="http://www.w3.org/1999/xlink" preserveAspectRatio="xMidYMid meet" viewBox="0 0 640 640" width="48" height="48"><defs><path d="M535 50L535 0L485 0L485 50L155 50L155 0L105 0L105 50C87 50 77 50 75 50C33.65 50 0 83.65 0 125C0 169 0 521 0 565C0 606.36 33.65 640 75 640C124 640 516 640 565 640C606.36 640 640 606.36 640 565C640 521 640 169 640 125C640 83.65 606.36 50 565 50C561 50 551 50 535 50ZM565 590C516 590 124 590 75 590C61.22 590 50 578.79 50 565C50 543 50 433 50 235L590 235L590 565C582.52 581.67 574.19 590 565 590ZM50 185C50 149 50 129 50 125C50 111.21 61.22 100 75 100C77 100 87 100 105 100L105 150L155 150L155 100L485 100L485 150L535 150L535 100C553 100 563 100 565 100C578.79 100 590 111.21 590 125C590 129 590 149 590 185L50 185Z" id="auq5noqh0"></path><path d="M145 287.5C145 287.5 145 287.5 145 287.5C145 317.5 145 334.17 145 337.5C145 337.5 145 337.5 145 337.5C115 337.5 98.33 337.5 95 337.5C95 337.5 95 337.5 95 337.5C95 307.5 95 290.83 95 287.5C95 287.5 95 287.5 95 287.5C125 287.5 141.67 287.5 145 287.5Z" id="dMB7AStBe"></path><path d="M245 287.5C245 287.5 245 287.5 245 287.5C245 317.5 245 334.17 245 337.5C245 337.5 245 337.5 245 337.5C215 337.5 198.33 337.5 195 337.5C195 337.5 195 337.5 195 337.5C195 307.5 195 290.83 195 287.5C195 287.5 195 287.5 195 287.5C225 287.5 241.67 287.5 245 287.5Z" id="d4pHVKB8C"></path><path d="M345 287.5C345 287.5 345 287.5 345 287.5C345 317.5 345 334.17 345 337.5C345 337.5 345 337.5 345 337.5C315 337.5 298.33 337.5 295 337.5C295 337.5 295 337.5 295 337.5C295 307.5 295 290.83 295 287.5C295 287.5 295 287.5 295 287.5C325 287.5 341.67 287.5 345 287.5Z" id="aaAbLhwu5"></path><path d="M445 287.5C445 287.5 445 287.5 445 287.5C445 317.5 445 334.17 445 337.5C445 337.5 445 337.5 445 337.5C415 337.5 398.33 337.5 395 337.5C395 337.5 395 337.5 395 337.5C395 307.5 395 290.83 395 287.5C395 287.5 395 287.5 395 287.5C425 287.5 441.67 287.5 445 287.5Z" id="c36gRTRYeb"></path><path d="M545 287.5C545 287.5 545 287.5 545 287.5C545 317.5 545 334.17 545 337.5C545 337.5 545 337.5 545 337.5C515 337.5 498.33 337.5 495 337.5C495 337.5 495 337.5 495 337.5C495 307.5 495 290.83 495 287.5C495 287.5 495 287.5 495 287.5C525 287.5 541.67 287.5 545 287.5Z" id="b1dOdzhxJA"></path><path d="M145 387.5C145 387.5 145 387.5 145 387.5C145 417.5 145 434.17 145 437.5C145 437.5 145 437.5 145 437.5C115 437.5 98.33 437.5 95 437.5C95 437.5 95 437.5 95 437.5C95 407.5 95 390.83 95 387.5C95 387.5 95 387.5 95 387.5C125 387.5 141.67 387.5 145 387.5Z" id="a1xoxDD1rX"></path><path d="M245 387.5C245 387.5 245 387.5 245 387.5C245 417.5 245 434.17 245 437.5C245 437.5 245 437.5 245 437.5C215 437.5 198.33 437.5 195 437.5C195 437.5 195 437.5 195 437.5C195 407.5 195 390.83 195 387.5C195 387.5 195 387.5 195 387.5C225 387.5 241.67 387.5 245 387.5Z" id="alXfZGw3q"></path><path d="M345 387.5C345 387.5 345 387.5 345 387.5C345 417.5 345 434.17 345 437.5C345 437.5 345 437.5 345 437.5C315 437.5 298.33 437.5 295 437.5C295 437.5 295 437.5 295 437.5C295 407.5 295 390.83 295 387.5C295 387.5 295 387.5 295 387.5C325 387.5 341.67 387.5 345 387.5Z" id="a7BKvQehi"></path><path d="M445 387.5C445 387.5 445 387.5 445 387.5C445 417.5 445 434.17 445 437.5C445 437.5 445 437.5 445 437.5C415 437.5 398.33 437.5 395 437.5C395 437.5 395 437.5 395 437.5C395 407.5 395 390.83 395 387.5C395 387.5 395 387.5 395 387.5C425 387.5 441.67 387.5 445 387.5Z" id="e12mKYMo8R"></path><path d="M145 487.5C145 487.5 145 487.5 145 487.5C145 517.5 145 534.17 145 537.5C145 537.5 145 537.5 145 537.5C115 537.5 98.33 537.5 95 537.5C95 537.5 95 537.5 95 537.5C95 507.5 95 490.83 95 487.5C95 487.5 95 487.5 95 487.5C125 487.5 141.67 487.5 145 487.5Z" id="j6XAx1Y2Y"></path><path d="M245 487.5C245 487.5 245 487.5 245 487.5C245 517.5 245 534.17 245 537.5C245 537.5 245 537.5 245 537.5C215 537.5 198.33 537.5 195 537.5C195 537.5 195 537.5 195 537.5C195 507.5 195 490.83 195 487.5C195 487.5 195 487.5 195 487.5C225 487.5 241.67 487.5 245 487.5Z" id="aQaVfIoic"></path><path d="M345 487.5C345 487.5 345 487.5 345 487.5C345 517.5 345 534.17 345 537.5C345 537.5 345 537.5 345 537.5C315 537.5 298.33 537.5 295 537.5C295 537.5 295 537.5 295 537.5C295 507.5 295 490.83 295 487.5C295 487.5 295 487.5 295 487.5C325 487.5 341.67 487.5 345 487.5Z" id="g1RcAwKReA"></path><path d="M445 487.5C445 487.5 445 487.5 445 487.5C445 517.5 445 534.17 445 537.5C445 537.5 445 537.5 445 537.5C415 537.5 398.33 537.5 395 537.5C395 537.5 395 537.5 395 537.5C395 507.5 395 490.83 395 487.5C395 487.5 395 487.5 395 487.5C425 487.5 441.67 487.5 445 487.5Z" id="b2QYJZ1b1R"></path><path d="M545 387.5C545 387.5 545 387.5 545 387.5C545 417.5 545 434.17 545 437.5C545 437.5 545 437.5 545 437.5C515 437.5 498.33 437.5 495 437.5C495 437.5 495 437.5 495 437.5C495 407.5 495 390.83 495 387.5C495 387.5 495 387.5 495 387.5C525 387.5 541.67 387.5 545 387.5Z" id="b35lPCXS7Z"></path></defs><g><g><g><use xlink:href="#auq5noqh0" opacity="1" fill="#cf3f49" fill-opacity="1"></use><g><use xlink:href="#auq5noqh0" opacity="1" fill-opacity="0" stroke="#000000" stroke-width="1" stroke-opacity="0"></use></g></g><g><use xlink:href="#dMB7AStBe" opacity="1" fill="#cf3f49" fill-opacity="1"></use><g><use xlink:href="#dMB7AStBe" opacity="1" fill-opacity="0" stroke="#000000" stroke-width="1" stroke-opacity="0"></use></g></g><g><use xlink:href="#d4pHVKB8C" opacity="1" fill="#cf3f49" fill-opacity="1"></use><g><use xlink:href="#d4pHVKB8C" opacity="1" fill-opacity="0" stroke="#000000" stroke-width="1" stroke-opacity="0"></use></g></g><g><use xlink:href="#aaAbLhwu5" opacity="1" fill="#cf3f49" fill-opacity="1"></use><g><use xlink:href="#aaAbLhwu5" opacity="1" fill-opacity="0" stroke="#000000" stroke-width="1" stroke-opacity="0"></use></g></g><g><use xlink:href="#c36gRTRYeb" opacity="1" fill="#cf3f49" fill-opacity="1"></use><g><use xlink:href="#c36gRTRYeb" opacity="1" fill-opacity="0" stroke="#000000" stroke-width="1" stroke-opacity="0"></use></g></g><g><use xlink:href="#b1dOdzhxJA" opacity="1" fill="#cf3f49" fill-opacity="1"></use><g><use xlink:href="#b1dOdzhxJA" opacity="1" fill-opacity="0" stroke="#000000" stroke-width="1" stroke-opacity="0"></use></g></g><g><use xlink:href="#a1xoxDD1rX" opacity="1" fill="#cf3f49" fill-opacity="1"></use><g><use xlink:href="#a1xoxDD1rX" opacity="1" fill-opacity="0" stroke="#000000" stroke-width="1" stroke-opacity="0"></use></g></g><g><use xlink:href="#alXfZGw3q" opacity="1" fill="#cf3f49" fill-opacity="1"></use><g><use xlink:href="#alXfZGw3q" opacity="1" fill-opacity="0" stroke="#000000" stroke-width="1" stroke-opacity="0"></use></g></g><g><use xlink:href="#a7BKvQehi" opacity="1" fill="#cf3f49" fill-opacity="1"></use><g><use xlink:href="#a7BKvQehi" opacity="1" fill-opacity="0" stroke="#000000" stroke-width="1" stroke-opacity="0"></use></g></g><g><use xlink:href="#e12mKYMo8R" opacity="1" fill="#cf3f49" fill-opacity="1"></use><g><use xlink:href="#e12mKYMo8R" opacity="1" fill-opacity="0" stroke="#000000" stroke-width="1" stroke-opacity="0"></use></g></g><g><use xlink:href="#j6XAx1Y2Y" opacity="1" fill="#cf3f49" fill-opacity="1"></use><g><use xlink:href="#j6XAx1Y2Y" opacity="1" fill-opacity="0" stroke="#000000" stroke-width="1" stroke-opacity="0"></use></g></g><g><use xlink:href="#aQaVfIoic" opacity="1" fill="#cf3f49" fill-opacity="1"></use><g><use xlink:href="#aQaVfIoic" opacity="1" fill-opacity="0" stroke="#000000" stroke-width="1" stroke-opacity="0"></use></g></g><g><use xlink:href="#g1RcAwKReA" opacity="1" fill="#cf3f49" fill-opacity="1"></use><g><use xlink:href="#g1RcAwKReA" opacity="1" fill-opacity="0" stroke="#000000" stroke-width="1" stroke-opacity="0"></use></g></g><g><use xlink:href="#b2QYJZ1b1R" opacity="1" fill="#cf3f49" fill-opacity="1"></use><g><use xlink:href="#b2QYJZ1b1R" opacity="1" fill-opacity="0" stroke="#000000" stroke-width="1" stroke-opacity="0"></use></g></g><g><use xlink:href="#b35lPCXS7Z" opacity="1" fill="#cf3f49" fill-opacity="1"></use><g><use xlink:href="#b35lPCXS7Z" opacity="1" fill-opacity="0" stroke="#000000" stroke-width="1" stroke-opacity="0"></use></g></g></g></g></svg>