<?xml version="1.0" encoding="UTF-8" standalone="no"?>
<!DOCTYPE svg PUBLIC "-//W3C//DTD SVG 1.1//EN" "http://www.w3.org/Graphics/SVG/1.1/DTD/svg11.dtd">
<svg version="1.1" xmlns="http://www.w3.org/2000/svg" xmlns:xlink="http://www.w3.org/1999/xlink" preserveAspectRatio="xMidYMid meet" viewBox="0 0 640 640" width="48" height="48"><defs><path d="M0 256C0 397.16 114.84 512 256 512C397.16 512 512 397.16 512 256C512 114.84 397.16 0 256 0C114.84 0 0 114.84 0 256ZM32 256C32 132.48 132.48 32 256 32C379.52 32 480 132.48 480 256C480 379.52 379.52 480 256 480C132.48 480 32 379.52 32 256Z" id="e5W9qrsH7B"></path><path d="M272 96L240 96L240 262.63L340.69 363.31L363.31 340.69L272 249.37L272 96Z" id="l2pChSETxi"></path></defs><g><g><g><use xlink:href="#e5W9qrsH7B" opacity="1" fill="#cf3f49" fill-opacity="1"></use><g><use xlink:href="#e5W9qrsH7B" opacity="1" fill-opacity="0" stroke="#000000" stroke-width="1" stroke-opacity="0"></use></g></g><g><use xlink:href="#l2pChSETxi" opacity="1" fill="#cf3f49" fill-opacity="1"></use><g><use xlink:href="#l2pChSETxi" opacity="1" fill-opacity="0" stroke="#000000" stroke-width="1" stroke-opacity="0"></use></g></g></g></g></svg>