<?xml version="1.0" encoding="UTF-8" standalone="no"?>
<svg
   xmlns:dc="http://purl.org/dc/elements/1.1/"
   xmlns:cc="http://creativecommons.org/ns#"
   xmlns:rdf="http://www.w3.org/1999/02/22-rdf-syntax-ns#"
   xmlns:svg="http://www.w3.org/2000/svg"
   xmlns="http://www.w3.org/2000/svg"
   xmlns:sodipodi="http://sodipodi.sourceforge.net/DTD/sodipodi-0.dtd"
   xmlns:inkscape="http://www.inkscape.org/namespaces/inkscape"
   height="512pt"
   viewBox="-106 0 512 512"
   width="512pt"
   version="1.1"
   id="svg4"
   sodipodi:docname="facebook-white.svg"
   inkscape:version="0.92.4 (5da689c313, 2019-01-14)">
  <metadata
     id="metadata10">
    <rdf:RDF>
      <cc:Work
         rdf:about="">
        <dc:format>image/svg+xml</dc:format>
        <dc:type
           rdf:resource="http://purl.org/dc/dcmitype/StillImage" />
        <dc:title></dc:title>
      </cc:Work>
    </rdf:RDF>
  </metadata>
  <defs
     id="defs8" />
  <sodipodi:namedview
     pagecolor="#ffffff"
     bordercolor="#666666"
     borderopacity="1"
     objecttolerance="10"
     gridtolerance="10"
     guidetolerance="10"
     inkscape:pageopacity="0"
     inkscape:pageshadow="2"
     inkscape:window-width="759"
     inkscape:window-height="480"
     id="namedview6"
     showgrid="false"
     inkscape:zoom="0.34570313"
     inkscape:cx="341.33333"
     inkscape:cy="341.33333"
     inkscape:window-x="0"
     inkscape:window-y="0"
     inkscape:window-maximized="0"
     inkscape:current-layer="svg4" />
  <path
     d="m284.925781 126.402344c8.285157 0 15-6.71875 15-15v-96.402344c0-8.285156-6.714843-15-15-15h-112.472656c-52.566406 0-95.332031 42.765625-95.332031 95.332031v97.46875h-62.121094c-8.285156 0-15 6.714844-15 15v96.398438c0 8.285156 6.714844 15 15 15h62.121094v177.800781c0 8.285156 6.714844 15 15 15h96.402344c8.285156 0 15-6.714844 15-15v-177.800781h62.121093c7.152344 0 13.308594-5.046875 14.710938-12.058594l19.277343-96.398437c.882813-4.40625-.257812-8.976563-3.109374-12.453126-2.847657-3.472656-7.105469-5.488281-11.597657-5.488281h-81.402343v-66.398437zm-96.402343 96.398437h78.105468l-13.28125 66.398438h-64.824218c-8.285157 0-15 6.714843-15 15v177.800781h-66.402344v-177.800781c0-8.285157-6.714844-15-15-15h-62.121094v-66.398438h62.121094c8.285156 0 15-6.714843 15-15v-112.46875c0-36.023437 29.308594-65.332031 65.332031-65.332031h97.472656v66.402344h-81.402343c-8.285157 0-15 6.714844-15 15v96.398437c0 8.285157 6.714843 15 15 15zm0 0"
     id="path2"
     style="fill:#ffffff" />
</svg>
