<?xml version="1.0" encoding="UTF-8" standalone="no"?>
<!DOCTYPE svg PUBLIC "-//W3C//DTD SVG 1.1//EN" "http://www.w3.org/Graphics/SVG/1.1/DTD/svg11.dtd">
<svg version="1.1" xmlns="http://www.w3.org/2000/svg" xmlns:xlink="http://www.w3.org/1999/xlink" preserveAspectRatio="xMidYMid meet" viewBox="0 0 640 640" width="48" height="48"><defs><path d="M95 225C95 266.92 106.61 307.83 128.59 343.32C146.45 372.1 289.33 602.35 307.19 631.14C310.61 636.65 316.64 640 323.12 640C323.17 640 323.22 640 323.27 640C329.81 639.95 335.85 636.5 339.21 630.89C356.62 601.82 495.86 369.34 513.26 340.28C534.03 305.53 545 265.67 545 225C545 100.94 444.07 0 320 0C195.94 0 95 100.94 95 225ZM322.84 585.23C225.41 428.23 171.28 341 160.46 323.56C142.17 294.02 132.25 259.94 132.25 225C132.25 121.61 216.61 37.25 320 37.25C423.39 37.25 507.63 121.61 507.63 225C507.63 258.9 498.36 292.11 481.08 321.02C459.98 356.25 407.24 444.32 322.84 585.23Z" id="bhoQnVYZ5"></path><path d="M207.5 225C207.5 286.64 257.15 337.5 320 337.5C383.63 337.5 432.5 285.96 432.5 225C432.5 162.97 382.03 112.5 320 112.5C257.97 112.5 207.5 162.97 207.5 225ZM244.75 225C244.75 183.65 278.65 149.75 320 149.75C361.36 149.75 395.13 183.65 395.13 225C395.13 265.85 362.23 300.25 320 300.25C278.43 300.25 244.75 266.46 244.75 225Z" id="a6pY7JTFvT"></path></defs><g><g><g><use xlink:href="#bhoQnVYZ5" opacity="1" fill="#cf3f49" fill-opacity="1"></use><g><use xlink:href="#bhoQnVYZ5" opacity="1" fill-opacity="0" stroke="#000000" stroke-width="1" stroke-opacity="0"></use></g></g><g><use xlink:href="#a6pY7JTFvT" opacity="1" fill="#cf3f49" fill-opacity="1"></use><g><use xlink:href="#a6pY7JTFvT" opacity="1" fill-opacity="0" stroke="#000000" stroke-width="1" stroke-opacity="0"></use></g></g></g></g></svg>