<?xml version="1.0" encoding="UTF-8" standalone="no"?>
<!DOCTYPE svg PUBLIC "-//W3C//DTD SVG 1.1//EN" "http://www.w3.org/Graphics/SVG/1.1/DTD/svg11.dtd">
<svg version="1.1" xmlns="http://www.w3.org/2000/svg" xmlns:xlink="http://www.w3.org/1999/xlink" preserveAspectRatio="xMidYMid meet" viewBox="0 0 640 640" width="48" height="48"><defs><path d="M97.37 136.46C88.72 136.46 80.6 139.5 74.2 144.97C70.5 143.71 66.59 143.06 62.64 143.06C42.92 143.06 26.88 159.1 26.88 178.81C26.88 194.03 36.69 207.46 50.59 212.48C54.78 227.66 68.78 238.75 85.06 238.75C104.78 238.75 120.82 222.71 120.82 203C120.82 201.78 120.76 200.57 120.63 199.37C128.47 192.64 133.13 182.75 133.13 172.22C133.13 152.5 117.09 136.46 97.37 136.46ZM99.09 190.76C100.43 195.09 101.17 197.5 101.32 197.98C101.82 199.6 102.07 201.29 102.07 203C102.07 212.37 94.44 220 85.06 220C76.19 220 68.74 213.08 68.11 204.24C68.07 203.74 67.89 201.23 67.57 196.73C63.1 196.07 60.62 195.71 60.13 195.63C51.86 194.41 45.63 187.18 45.63 178.81C45.63 169.43 53.26 161.81 62.64 161.81C65.77 161.81 68.82 162.66 71.47 164.28C71.96 164.57 74.36 166.04 78.7 168.69C81.77 164.64 83.48 162.4 83.82 161.95C87.08 157.67 92.01 155.21 97.37 155.21C106.75 155.21 114.38 162.84 114.38 172.22C114.38 178.35 111.05 184.04 105.68 187.05C104.81 187.55 102.61 188.78 99.09 190.76Z" id="d2r36bx8Yf"></path><path d="M200.21 19.37C192.45 19.37 185.14 22.03 179.32 26.84C176.08 25.8 172.67 25.26 169.23 25.26C151.08 25.26 136.32 40.02 136.32 58.17C136.32 59.29 136.37 60.41 136.49 61.52C131.84 67.32 129.26 74.57 129.26 82.1C129.26 100.24 144.02 115.01 162.17 115.01C167.84 115.01 173.4 113.53 178.29 110.78C181.79 112.01 185.49 112.65 189.23 112.65C207.38 112.65 222.14 97.89 222.14 79.74C222.14 78.8 222.1 77.86 222.02 76.92C228.99 70.74 233.13 61.8 233.13 52.28C233.13 34.14 218.36 19.37 200.21 19.37ZM200.55 68.34C201.88 72.68 202.62 75.09 202.77 75.57C203.19 76.91 203.4 78.32 203.4 79.74C203.4 87.55 197.04 93.9 189.23 93.9C186.72 93.9 184.26 93.23 182.1 91.97C181.72 91.75 179.81 90.63 176.37 88.62C173.33 91.19 171.64 92.62 171.31 92.91C168.72 95.1 165.56 96.26 162.17 96.26C154.36 96.26 148.01 89.9 148.01 82.1C148.01 78.05 149.75 74.19 152.78 71.5C153.07 71.24 154.53 69.95 157.16 67.62C156.22 64.23 155.7 62.35 155.59 61.97C155.25 60.73 155.07 59.45 155.07 58.17C155.07 50.36 161.42 44.01 169.23 44.01C171.84 44.01 174.38 44.72 176.59 46.07C177.07 46.36 179.48 47.83 183.81 50.47C186.89 46.43 188.59 44.18 188.93 43.73C191.64 40.17 195.75 38.12 200.22 38.12C208.03 38.12 214.38 44.48 214.38 52.28C214.38 57.39 211.6 62.12 207.14 64.64C206.26 65.13 204.06 66.36 200.55 68.34Z" id="aJ1MN5fhn"></path><path d="M580.21 88.75C572.44 88.75 565.13 91.41 559.31 96.22C556.07 95.18 552.67 94.64 549.22 94.64C531.07 94.64 516.31 109.4 516.31 127.55C516.31 128.67 516.37 129.79 516.48 130.9C511.84 136.7 509.25 143.95 509.25 151.48C509.25 169.62 524.01 184.39 542.16 184.39C547.83 184.39 553.39 182.91 558.28 180.16C561.78 181.39 565.49 182.03 569.22 182.03C587.37 182.03 602.14 167.27 602.14 149.12C602.14 148.18 602.1 147.24 602.02 146.31C608.99 140.13 613.12 131.18 613.12 121.66C613.12 103.52 598.36 88.75 580.21 88.75ZM580.54 137.72C581.87 142.06 582.61 144.47 582.76 144.95C583.18 146.29 583.39 147.7 583.39 149.12C583.39 156.93 577.03 163.28 569.22 163.28C566.71 163.28 564.25 162.61 562.09 161.35C561.71 161.13 559.8 160.01 556.36 158C553.32 160.57 551.63 162 551.3 162.29C548.71 164.48 545.55 165.64 542.16 165.64C534.35 165.64 528 159.28 528 151.48C528 147.44 529.74 143.57 532.77 140.88C533.06 140.62 534.52 139.33 537.15 137C536.21 133.61 535.68 131.73 535.58 131.36C535.23 130.11 535.06 128.83 535.06 127.55C535.06 119.74 541.41 113.39 549.22 113.39C551.82 113.39 554.37 114.1 556.57 115.45C557.05 115.74 559.46 117.21 563.8 119.86C566.87 115.81 568.58 113.56 568.92 113.11C571.63 109.55 575.74 107.5 580.21 107.5C588.01 107.5 594.37 113.86 594.37 121.66C594.37 126.77 591.59 131.51 587.13 134.02C586.25 134.51 584.05 135.75 580.54 137.72Z" id="fDwdLGfke"></path><path d="M493.27 26.31C492.23 22.54 490.58 18.94 488.35 15.67C482.99 7.77 474.87 2.43 465.48 0.64C456.1 -1.15 446.58 0.82 438.68 6.19C426.1 14.74 420.5 30.4 424.17 44.72C413.96 56.72 412.65 74.53 421.8 88C427.17 95.9 435.29 101.24 444.68 103.03C446.94 103.46 449.2 103.67 451.45 103.67C458.55 103.67 465.48 101.56 471.48 97.48C472.48 96.8 473.45 96.07 474.37 95.29C484.34 97.99 495.14 96.28 503.85 90.37C503.85 90.37 503.85 90.37 503.85 90.37C520.16 79.29 524.41 57 513.33 40.7C508.47 33.54 501.39 28.53 493.27 26.31ZM493.31 74.86C493.31 74.86 493.31 74.86 493.31 74.86C488.24 78.31 481.66 78.74 476.16 76C475.71 75.78 473.45 74.66 469.39 72.64C466.55 76.17 464.98 78.14 464.66 78.53C463.6 79.86 462.35 81.01 460.94 81.97C457.18 84.53 452.65 85.46 448.19 84.61C443.73 83.76 439.87 81.22 437.31 77.46C432.33 70.12 433.87 60.07 440.82 54.58C441.22 54.27 443.19 52.71 446.73 49.92C444.76 45.85 443.67 43.59 443.45 43.14C439.82 35.62 442.3 26.4 449.22 21.7C452.07 19.76 455.37 18.75 458.74 18.75C459.81 18.75 460.89 18.86 461.97 19.06C466.43 19.91 470.29 22.45 472.85 26.21C474.61 28.8 475.62 31.81 475.77 34.91C475.8 35.47 475.93 38.29 476.18 43.36C481.25 43.63 484.07 43.78 484.64 43.81C490 44.09 494.81 46.8 497.82 51.23C500.38 54.99 501.31 59.52 500.46 63.98C499.61 68.44 497.07 72.3 493.31 74.86Z" id="b4P0LrXdFV"></path><path d="M512.25 248.91C514.47 244.43 515.62 239.5 515.62 234.37C515.62 218.45 504.25 205.13 489.21 202.11C490.94 198.08 491.87 193.69 491.87 189.17C491.87 171.02 477.11 156.25 458.96 156.25C454.01 156.25 449.19 157.36 444.8 159.46C436.86 151.86 426.24 147.5 415 147.5C412.11 147.5 409.26 147.79 406.47 148.35C403.92 145.82 400.99 143.72 397.79 142.15C404.31 135.55 408.12 126.54 408.12 117.02C408.12 97.3 392.08 81.26 372.36 81.26C363.72 81.26 355.59 84.29 349.19 89.77C345.49 88.51 341.59 87.86 337.63 87.86C330.61 87.86 323.9 89.88 318.18 93.6C306.25 82.34 287.66 80.44 273.54 90.03C261.47 98.23 255.83 112.98 258.62 126.81C244.64 129.41 233.73 140.88 231.98 155.14C227.95 153.98 223.37 153.36 218.29 153.79C210.53 154.45 203.65 157.05 198.3 161.26C195.03 160.19 191.58 159.65 188.1 159.65C169.95 159.65 155.19 174.41 155.19 192.56C155.19 193.68 155.24 194.79 155.36 195.9C150.71 201.7 148.12 208.95 148.12 216.48C148.12 221.92 149.44 227.09 151.81 231.67C133.05 232.75 118.12 248.34 118.12 267.36C118.12 276.3 121.47 284.76 127.26 291.23C118.14 302.45 113.62 316.9 114.8 331.39C118.2 351.97 135.2 454.84 165.79 640L459.19 640L510.1 332.16C510.16 331.7 510.19 331.45 510.19 331.39C511.09 320.37 508.69 309.37 503.47 299.79C504.23 296.81 504.63 293.79 504.63 290.86C504.63 289.92 504.59 288.98 504.51 288.05C511.49 281.87 515.62 272.92 515.62 263.41C515.62 258.37 514.45 253.4 512.25 248.91ZM181.7 621.24C152.76 446.2 136.68 348.95 133.46 329.5C132.71 319.03 136.2 309.03 143.33 301.3C150.54 293.48 160.36 289.17 171 289.17C171.04 289.17 171.35 289.17 171.39 289.17C191.7 289.17 208.22 305.07 209 325.36C209 325.37 209.01 325.43 209.01 325.55C209.06 326.23 209.09 326.6 209.1 326.68C209.1 327.44 209.11 328.21 209.14 328.98C210.69 348.46 218.43 445.88 232.35 621.24L181.7 621.24L181.7 621.24ZM227.86 326.03C228.04 316.54 231.72 307.61 238.37 300.71C245.53 293.27 255.16 289.17 265.49 289.17C286.24 289.17 303.12 306.05 303.12 326.81C303.12 346.44 303.12 444.58 303.12 621.24L251.16 621.24C237.18 444.12 229.41 345.71 227.86 326.03ZM321.87 621.25C321.87 444.58 321.87 346.44 321.87 326.81C321.87 306.05 338.76 289.17 359.51 289.17C369.84 289.17 379.47 293.27 386.63 300.71C393.28 307.62 396.97 316.54 397.14 326.03C395.59 345.71 387.82 444.12 373.83 621.25L321.87 621.25L321.87 621.25ZM443.29 621.24L392.65 621.24L415.84 329.36C415.85 329.13 415.86 329 415.86 328.97C415.89 328.21 415.9 327.44 415.9 326.67C415.91 326.61 415.93 326.3 415.97 325.73C415.99 325.51 416 325.38 416 325.36C416.78 305.07 433.3 289.17 453.61 289.17C453.65 289.17 453.96 289.17 454 289.17C464.63 289.17 474.46 293.47 481.67 301.3C488.8 309.03 492.29 319.03 491.54 329.5C485.11 368.4 469.02 465.65 443.29 621.24ZM483.87 279C474.98 273.46 464.63 270.42 454 270.42C453.96 270.42 453.64 270.42 453.61 270.42C433.92 270.42 416.62 280.39 406.53 295.66C404.67 292.85 402.53 290.2 400.14 287.71C389.41 276.56 374.98 270.42 359.51 270.42C339.9 270.42 322.6 280.48 312.5 295.71C302.39 280.48 285.09 270.42 265.48 270.42C250.01 270.42 235.58 276.56 224.85 287.71C222.46 290.2 220.33 292.85 218.46 295.66C208.38 280.39 191.07 270.42 171.39 270.42C171.35 270.42 171.04 270.42 171 270.42C160.46 270.42 150.19 273.4 141.36 278.85C138.52 275.76 136.87 271.67 136.87 267.35C136.87 257.98 144.51 250.35 153.89 250.35C157.02 250.35 160.07 251.21 162.72 252.82C163.2 253.11 165.61 254.58 169.94 257.22C173.01 253.18 174.72 250.94 175.06 250.49C176.19 249.01 177.56 247.72 179.13 246.66C180.2 245.93 185.53 242.32 195.13 235.82C184.08 232.3 177.95 230.35 176.72 229.96C170.83 228.08 166.87 222.67 166.87 216.48C166.87 212.43 168.61 208.57 171.65 205.88C171.94 205.62 173.4 204.33 176.03 201.99C175.08 198.6 174.56 196.72 174.45 196.34C174.11 195.12 173.94 193.84 173.94 192.56C173.94 184.75 180.29 178.39 188.1 178.39C190.71 178.39 193.25 179.1 195.45 180.45C195.93 180.74 198.34 182.21 202.68 184.86C205.75 180.81 207.46 178.56 207.8 178.11C210.9 174.04 216.08 172.8 219.88 172.47C228.2 171.77 234.27 176.7 237.9 179.65C239.02 180.56 239.99 181.35 241.05 181.99C241.53 182.28 243.96 183.75 248.34 186.4L253.37 179.63L257.96 173.59C255.29 170.17 253.8 168.28 253.5 167.9C251.53 165.38 250.49 162.36 250.49 159.17C250.49 151.41 256.75 145.09 264.49 145.01C264.85 145.03 266.61 145.13 269.78 145.31C271.59 142.95 272.59 141.64 272.79 141.38C273.67 140.25 274.64 139.25 275.69 138.42C276.08 138.11 278.05 136.56 281.59 133.76C279.62 129.7 278.53 127.44 278.31 126.99C274.68 119.46 277.15 110.24 284.08 105.54C291.83 100.26 302.43 102.29 307.7 110.04C308.01 110.5 308.32 111.03 308.62 111.61C309.07 112.46 311.3 116.73 315.31 124.43C320.7 117.62 323.69 113.84 324.28 113.09C327.54 108.97 332.41 106.61 337.63 106.61C340.76 106.61 343.82 107.46 346.47 109.08C346.95 109.37 349.36 110.84 353.69 113.47C356.76 109.44 358.46 107.2 358.8 106.75C362.07 102.47 367.01 100.01 372.36 100.01C381.74 100.01 389.37 107.64 389.37 117.02C389.37 123.16 386.04 128.84 380.68 131.84C380.24 132.09 378.05 133.32 374.11 135.53C375.42 139.86 376.16 142.27 376.3 142.75C376.78 144.34 377.04 145.97 377.06 147.6C377.04 147.85 377.03 148.11 377.03 148.37C377.03 148.92 377.03 151.65 377.03 156.58C381.91 157.23 384.63 157.59 385.17 157.66C389.29 158.21 392.95 160.55 395.21 164.09C395.48 164.52 396.85 166.66 399.31 170.51C403.58 168.89 405.95 167.99 406.43 167.81C409.16 166.78 412.04 166.26 415 166.26C423.14 166.26 430.71 170.3 435.25 177.06C435.65 177.67 437.68 180.69 441.32 186.13C446.15 181.7 448.83 179.25 449.37 178.75C452.01 176.34 455.41 175.01 458.96 175.01C466.77 175.01 473.12 181.36 473.12 189.17C473.12 194.27 470.34 199.01 465.87 201.52C465.43 201.77 463.22 203.01 459.25 205.25C460.62 209.6 461.38 212.02 461.53 212.51C461.75 213.2 461.91 213.99 462.01 214.86C462.12 215.79 462.65 220.43 463.62 228.78C470.97 224.7 475.06 222.43 475.87 221.98C477.94 220.83 480.3 220.22 482.71 220.22C490.52 220.22 496.87 226.57 496.87 234.37C496.87 237.57 495.83 240.59 493.86 243.11C493.55 243.5 492.04 245.43 489.31 248.9C492.04 252.37 493.56 254.3 493.87 254.69C495.83 257.19 496.87 260.2 496.87 263.4C496.87 268.51 494.09 273.24 489.62 275.76C488.47 276.4 484.44 278.67 483.87 279Z" id="b1xeScrX8e"></path><path d="M336.29 179.34C329.76 172.27 320.53 168.13 310.62 168.13C293.88 168.13 279.85 179.94 276.42 195.67C257.91 196.56 243.12 211.9 243.12 230.63C245 230.63 260 230.63 261.87 230.63C261.87 221.67 269.16 214.38 278.12 214.38C279.6 214.38 281.1 214.59 282.59 215.02C283.49 215.28 287.98 216.56 296.05 218.87C295.11 210.52 294.59 205.89 294.49 204.96C294.41 204.28 294.37 203.68 294.37 203.13C294.37 194.17 301.66 186.88 310.62 186.88C316.69 186.88 322.2 190.23 325.02 195.62C325.37 196.28 327.09 199.58 330.2 205.52C335.51 201.43 338.46 199.16 339.05 198.7C340.13 197.87 341.93 196.88 344.37 196.88C349.2 196.88 353.12 200.8 353.12 205.63C355 205.63 370 205.63 371.87 205.63C371.87 190.46 359.54 178.13 344.37 178.13C341.59 178.13 338.88 178.54 336.29 179.34Z" id="a4IKUNsxO"></path><path d="M382.98 223.02C379.64 221.85 376.11 221.25 372.5 221.25C354.92 221.25 340.62 235.55 340.62 253.13C342.5 253.13 357.5 253.13 359.37 253.13C359.37 245.89 365.26 240 372.5 240C375.34 240 378.05 240.91 380.35 242.64C380.96 243.1 384.03 245.4 389.54 249.54C392.49 243.31 394.13 239.84 394.45 239.15C396.72 234.35 401.6 231.25 406.87 231.25C414.45 231.25 420.62 237.42 420.62 245C422.5 245 437.5 245 439.37 245C439.37 227.08 424.79 212.5 406.87 212.5C397.7 212.5 389.05 216.45 382.98 223.02Z" id="f1y0u4jlE7"></path><path d="M170.75 325.06C170.75 325.06 170.75 325.06 170.75 325.06C177.97 368.74 181.99 393 182.79 397.85C182.79 397.85 182.79 397.85 182.79 397.85C171.69 399.69 165.52 400.71 164.29 400.91C164.29 400.91 164.29 400.91 164.29 400.91C157.07 357.24 153.05 332.98 152.25 328.12C152.25 328.12 152.25 328.12 152.25 328.12C163.35 326.29 169.51 325.27 170.75 325.06Z" id="cBTsGhufL"></path><path d="M340.08 538.57C340.08 538.57 340.08 538.57 340.08 538.57C351.3 539.47 357.53 539.96 358.77 540.06C358.77 540.06 358.77 540.06 358.77 540.06C357.61 554.65 356.97 562.76 356.84 564.38C356.84 564.38 356.84 564.38 356.84 564.38C345.62 563.49 339.39 563 338.15 562.9C338.15 562.9 338.15 562.9 338.15 562.9C339.31 548.3 339.95 540.2 340.08 538.57Z" id="f56uQeNzoy"></path><path d="M354.12 396.09C354.12 396.09 354.12 396.09 354.12 396.09C365.34 396.98 371.57 397.47 372.81 397.57C372.81 397.57 372.81 397.57 372.81 397.57C369.42 440.32 367.53 464.08 367.15 468.83C367.15 468.83 367.15 468.83 367.15 468.83C355.94 467.94 349.71 467.44 348.46 467.34C348.46 467.34 348.46 467.34 348.46 467.34C351.86 424.59 353.74 400.84 354.12 396.09Z" id="a8TupiYwLg"></path><path d="M200.36 504.11C200.36 504.11 200.36 504.11 200.36 504.11C204.86 531.36 207.37 546.5 207.87 549.53C207.87 549.53 207.87 549.53 207.87 549.53C196.77 551.37 190.6 552.39 189.37 552.59C189.37 552.59 189.37 552.59 189.37 552.59C184.86 525.34 182.36 510.2 181.86 507.17C181.86 507.17 181.86 507.17 181.86 507.17C192.96 505.34 199.12 504.32 200.36 504.11Z" id="j4uxI6Vr82"></path><path d="M359.69 325.9C359.69 325.9 359.69 325.9 359.69 325.9C370.91 326.8 377.14 327.29 378.38 327.39C378.38 327.39 378.38 327.39 378.38 327.39C376.41 352.26 375.31 366.07 375.09 368.84C375.09 368.84 375.09 368.84 375.09 368.84C363.87 367.95 357.64 367.45 356.4 367.35C356.4 367.35 356.4 367.35 356.4 367.35C358.37 342.48 359.47 328.67 359.69 325.9Z" id="ajdROmL9n"></path></defs><g><g><g><use xlink:href="#d2r36bx8Yf" opacity="1" fill="#cf3f49" fill-opacity="1"></use><g><use xlink:href="#d2r36bx8Yf" opacity="1" fill-opacity="0" stroke="#000000" stroke-width="1" stroke-opacity="0"></use></g></g><g><use xlink:href="#aJ1MN5fhn" opacity="1" fill="#cf3f49" fill-opacity="1"></use><g><use xlink:href="#aJ1MN5fhn" opacity="1" fill-opacity="0" stroke="#000000" stroke-width="1" stroke-opacity="0"></use></g></g><g><use xlink:href="#fDwdLGfke" opacity="1" fill="#cf3f49" fill-opacity="1"></use><g><use xlink:href="#fDwdLGfke" opacity="1" fill-opacity="0" stroke="#000000" stroke-width="1" stroke-opacity="0"></use></g></g><g><use xlink:href="#b4P0LrXdFV" opacity="1" fill="#cf3f49" fill-opacity="1"></use><g><use xlink:href="#b4P0LrXdFV" opacity="1" fill-opacity="0" stroke="#000000" stroke-width="1" stroke-opacity="0"></use></g></g><g><use xlink:href="#b1xeScrX8e" opacity="1" fill="#cf3f49" fill-opacity="1"></use><g><use xlink:href="#b1xeScrX8e" opacity="1" fill-opacity="0" stroke="#000000" stroke-width="1" stroke-opacity="0"></use></g></g><g><use xlink:href="#a4IKUNsxO" opacity="1" fill="#cf3f49" fill-opacity="1"></use><g><use xlink:href="#a4IKUNsxO" opacity="1" fill-opacity="0" stroke="#000000" stroke-width="1" stroke-opacity="0"></use></g></g><g><use xlink:href="#f1y0u4jlE7" opacity="1" fill="#cf3f49" fill-opacity="1"></use><g><use xlink:href="#f1y0u4jlE7" opacity="1" fill-opacity="0" stroke="#000000" stroke-width="1" stroke-opacity="0"></use></g></g><g><use xlink:href="#cBTsGhufL" opacity="1" fill="#cf3f49" fill-opacity="1"></use><g><use xlink:href="#cBTsGhufL" opacity="1" fill-opacity="0" stroke="#000000" stroke-width="1" stroke-opacity="0"></use></g></g><g><use xlink:href="#f56uQeNzoy" opacity="1" fill="#cf3f49" fill-opacity="1"></use><g><use xlink:href="#f56uQeNzoy" opacity="1" fill-opacity="0" stroke="#000000" stroke-width="1" stroke-opacity="0"></use></g></g><g><use xlink:href="#a8TupiYwLg" opacity="1" fill="#cf3f49" fill-opacity="1"></use><g><use xlink:href="#a8TupiYwLg" opacity="1" fill-opacity="0" stroke="#000000" stroke-width="1" stroke-opacity="0"></use></g></g><g><use xlink:href="#j4uxI6Vr82" opacity="1" fill="#cf3f49" fill-opacity="1"></use><g><use xlink:href="#j4uxI6Vr82" opacity="1" fill-opacity="0" stroke="#000000" stroke-width="1" stroke-opacity="0"></use></g></g><g><use xlink:href="#ajdROmL9n" opacity="1" fill="#cf3f49" fill-opacity="1"></use><g><use xlink:href="#ajdROmL9n" opacity="1" fill-opacity="0" stroke="#000000" stroke-width="1" stroke-opacity="0"></use></g></g></g></g></svg>