<?xml version="1.0" encoding="UTF-8" standalone="no"?>
<!-- Generator: Adobe Illustrator 19.0.0, SVG Export Plug-In . SVG Version: 6.00 Build 0)  -->

<svg
   xmlns:dc="http://purl.org/dc/elements/1.1/"
   xmlns:cc="http://creativecommons.org/ns#"
   xmlns:rdf="http://www.w3.org/1999/02/22-rdf-syntax-ns#"
   xmlns:svg="http://www.w3.org/2000/svg"
   xmlns="http://www.w3.org/2000/svg"
   xmlns:sodipodi="http://sodipodi.sourceforge.net/DTD/sodipodi-0.dtd"
   xmlns:inkscape="http://www.inkscape.org/namespaces/inkscape"
   version="1.1"
   id="Capa_1"
   x="0px"
   y="0px"
   viewBox="0 0 512 512"
   style="enable-background:new 0 0 512 512;"
   xml:space="preserve"
   sodipodi:docname="cinema (1) - red.svg"
   inkscape:version="0.92.4 (5da689c313, 2019-01-14)"><metadata
   id="metadata157"><rdf:RDF><cc:Work
       rdf:about=""><dc:format>image/svg+xml</dc:format><dc:type
         rdf:resource="http://purl.org/dc/dcmitype/StillImage" /><dc:title></dc:title></cc:Work></rdf:RDF></metadata><defs
   id="defs155" /><sodipodi:namedview
   pagecolor="#ffffff"
   bordercolor="#666666"
   borderopacity="1"
   objecttolerance="10"
   gridtolerance="10"
   guidetolerance="10"
   inkscape:pageopacity="0"
   inkscape:pageshadow="2"
   inkscape:window-width="1366"
   inkscape:window-height="695"
   id="namedview153"
   showgrid="false"
   inkscape:zoom="0.4609375"
   inkscape:cx="256"
   inkscape:cy="256"
   inkscape:window-x="0"
   inkscape:window-y="0"
   inkscape:window-maximized="1"
   inkscape:current-layer="Capa_1" />
<g
   id="g6">
	<g
   id="g4">
		<path
   d="M49.431,91.522H32.509c-3.047,0-5.517,2.47-5.517,5.517v16.922c0,3.047,2.47,5.517,5.517,5.517h16.922    c3.047,0,5.517-2.47,5.517-5.517V97.039C54.948,93.992,52.478,91.522,49.431,91.522z"
   id="path2"
   style="fill:#b3414b;fill-opacity:1" />
	</g>
</g>
<g
   id="g12">
	<g
   id="g10">
		<path
   d="M49.431,134.522H32.509c-3.047,0-5.517,2.47-5.517,5.517v16.922c0,3.047,2.47,5.517,5.517,5.517h16.922    c3.047,0,5.517-2.47,5.517-5.517v-16.922C54.948,136.992,52.478,134.522,49.431,134.522z"
   id="path8"
   style="fill:#b3414b;fill-opacity:1" />
	</g>
</g>
<g
   id="g18">
	<g
   id="g16">
		<path
   d="M49.431,177.522H32.509c-3.047,0-5.517,2.47-5.517,5.517v16.922c0,3.047,2.47,5.517,5.517,5.517h16.922    c3.047,0,5.517-2.47,5.517-5.517v-16.922C54.948,179.992,52.478,177.522,49.431,177.522z"
   id="path14"
   style="fill:#b3414b;fill-opacity:1" />
	</g>
</g>
<g
   id="g24">
	<g
   id="g22">
		<path
   d="M49.431,220.522H32.509c-3.047,0-5.517,2.47-5.517,5.517v16.922c0,3.047,2.47,5.517,5.517,5.517h16.922    c3.047,0,5.517-2.47,5.517-5.517v-16.922C54.948,222.992,52.478,220.522,49.431,220.522z"
   id="path20"
   style="fill:#b3414b;fill-opacity:1" />
	</g>
</g>
<g
   id="g30">
	<g
   id="g28">
		<path
   d="M49.431,263.522H32.509c-3.047,0-5.517,2.47-5.517,5.517v16.922c0,3.047,2.47,5.517,5.517,5.517h16.922    c3.047,0,5.517-2.47,5.517-5.517v-16.922C54.948,265.992,52.478,263.522,49.431,263.522z"
   id="path26"
   style="fill:#b3414b;fill-opacity:1" />
	</g>
</g>
<g
   id="g36">
	<g
   id="g34">
		<path
   d="M49.431,306.522H32.509c-3.047,0-5.517,2.47-5.517,5.517v16.922c0,3.047,2.47,5.517,5.517,5.517h16.922    c3.047,0,5.517-2.47,5.517-5.517v-16.922C54.948,308.992,52.478,306.522,49.431,306.522z"
   id="path32"
   style="fill:#b3414b;fill-opacity:1" />
	</g>
</g>
<g
   id="g42">
	<g
   id="g40">
		<path
   d="M49.431,349.522H32.509c-3.047,0-5.517,2.47-5.517,5.517v16.922c0,3.047,2.47,5.517,5.517,5.517h16.922    c3.047,0,5.517-2.47,5.517-5.517v-16.922C54.948,351.992,52.478,349.522,49.431,349.522z"
   id="path38"
   style="fill:#b3414b;fill-opacity:1" />
	</g>
</g>
<g
   id="g48">
	<g
   id="g46">
		<path
   d="M49.431,392.522H32.509c-3.047,0-5.517,2.47-5.517,5.517v16.922c0,3.047,2.47,5.517,5.517,5.517h16.922    c3.047,0,5.517-2.47,5.517-5.517v-16.922C54.948,394.992,52.478,392.522,49.431,392.522z"
   id="path44"
   style="fill:#b3414b;fill-opacity:1" />
	</g>
</g>
<g
   id="g54">
	<g
   id="g52">
		<path
   d="M479.491,91.522h-16.922c-3.047,0-5.517,2.47-5.517,5.517v16.922c0,3.047,2.47,5.517,5.517,5.517h16.922    c3.047,0,5.517-2.47,5.517-5.517V97.039C485.008,93.992,482.538,91.522,479.491,91.522z"
   id="path50"
   style="fill:#b3414b;fill-opacity:1" />
	</g>
</g>
<g
   id="g60">
	<g
   id="g58">
		<path
   d="M479.491,134.522h-16.922c-3.047,0-5.517,2.47-5.517,5.517v16.922c0,3.047,2.47,5.517,5.517,5.517h16.922    c3.047,0,5.517-2.47,5.517-5.517v-16.922C485.008,136.992,482.538,134.522,479.491,134.522z"
   id="path56"
   style="fill:#b3414b;fill-opacity:1" />
	</g>
</g>
<g
   id="g66">
	<g
   id="g64">
		<path
   d="M479.491,177.522h-16.922c-3.047,0-5.517,2.47-5.517,5.517v16.922c0,3.047,2.47,5.517,5.517,5.517h16.922    c3.047,0,5.517-2.47,5.517-5.517v-16.922C485.008,179.992,482.538,177.522,479.491,177.522z"
   id="path62"
   style="fill:#b3414b;fill-opacity:1" />
	</g>
</g>
<g
   id="g72">
	<g
   id="g70">
		<path
   d="M479.491,220.522h-16.922c-3.047,0-5.517,2.47-5.517,5.517v16.922c0,3.047,2.47,5.517,5.517,5.517h16.922    c3.047,0,5.517-2.47,5.517-5.517v-16.922C485.008,222.992,482.538,220.522,479.491,220.522z"
   id="path68"
   style="fill:#b3414b;fill-opacity:1" />
	</g>
</g>
<g
   id="g78">
	<g
   id="g76">
		<path
   d="M479.491,263.522h-16.922c-3.047,0-5.517,2.47-5.517,5.517v16.922c0,3.047,2.47,5.517,5.517,5.517h16.922    c3.047,0,5.517-2.47,5.517-5.517v-16.922C485.008,265.992,482.538,263.522,479.491,263.522z"
   id="path74"
   style="fill:#b3414b;fill-opacity:1" />
	</g>
</g>
<g
   id="g84">
	<g
   id="g82">
		<path
   d="M479.491,306.522h-16.922c-3.047,0-5.517,2.47-5.517,5.517v16.922c0,3.047,2.47,5.517,5.517,5.517h16.922    c3.047,0,5.517-2.47,5.517-5.517v-16.922C485.008,308.992,482.538,306.522,479.491,306.522z"
   id="path80"
   style="fill:#b3414b;fill-opacity:1" />
	</g>
</g>
<g
   id="g90">
	<g
   id="g88">
		<path
   d="M479.491,349.522h-16.922c-3.047,0-5.517,2.47-5.517,5.517v16.922c0,3.047,2.47,5.517,5.517,5.517h16.922    c3.047,0,5.517-2.47,5.517-5.517v-16.922C485.008,351.992,482.538,349.522,479.491,349.522z"
   id="path86"
   style="fill:#b3414b;fill-opacity:1" />
	</g>
</g>
<g
   id="g96">
	<g
   id="g94">
		<path
   d="M479.491,392.522h-16.922c-3.047,0-5.517,2.47-5.517,5.517v16.922c0,3.047,2.47,5.517,5.517,5.517h16.922    c3.047,0,5.517-2.47,5.517-5.517v-16.922C485.008,394.992,482.538,392.522,479.491,392.522z"
   id="path92"
   style="fill:#b3414b;fill-opacity:1" />
	</g>
</g>
<g
   id="g102">
	<g
   id="g100">
		<path
   d="M206.34,241.607c-4.142,0-7.5,3.358-7.5,7.5v8.988c0,4.142,3.358,7.5,7.5,7.5c4.142,0,7.5-3.358,7.5-7.5v-8.988    C213.84,244.965,210.482,241.607,206.34,241.607z"
   id="path98"
   style="fill:#b3414b;fill-opacity:1" />
	</g>
</g>
<g
   id="g108">
	<g
   id="g106">
		<path
   d="M305.66,241.607c-4.142,0-7.5,3.358-7.5,7.5v8.988c0,4.142,3.358,7.5,7.5,7.5c4.142,0,7.5-3.358,7.5-7.5v-8.988    C313.16,244.965,309.802,241.607,305.66,241.607z"
   id="path104"
   style="fill:#b3414b;fill-opacity:1" />
	</g>
</g>
<g
   id="g114">
	<g
   id="g112">
		<path
   d="M273.192,251.822c-3.119-2.726-7.857-2.407-10.583,0.711c-1.588,1.816-3.997,2.858-6.609,2.858s-5.022-1.042-6.61-2.859    c-2.727-3.118-7.464-3.437-10.583-0.711c-3.119,2.726-3.437,7.464-0.711,10.583c4.437,5.077,10.963,7.988,17.904,7.988    c6.941,0,13.467-2.911,17.903-7.987C276.629,259.286,276.31,254.548,273.192,251.822z"
   id="path110"
   style="fill:#b3414b;fill-opacity:1" />
	</g>
</g>
<g
   id="g120">
	<g
   id="g118">
		<path
   d="M 483.65,56.76 H 28.35 C 12.718,56.76 0,69.482 0,85.12 v 341.77 c 0,15.632 12.718,28.35 28.35,28.35 h 455.3 c 15.632,0 28.35,-12.718 28.35,-28.35 V 85.12 C 512,69.482 499.282,56.76 483.65,56.76 Z m -401.71,15 H 248.5 v 55.486 C 183.342,131.001 131,183.342 127.246,248.5 H 81.94 v -79.27966 z m 166.56,70.515 v 11.524 c -50.54,3.674 -91.027,44.161 -94.701,94.7 H 142.275 C 145.989,191.616 191.616,145.989 248.5,142.275 Z M 66.94,440.24 H 28.35 C 20.989,440.24 15,434.251 15,426.89 V 85.12 c 0,-7.367 5.989,-13.36 13.35,-13.36 h 38.59 z m 181.56,0 H 81.94 V 263.5 h 45.306 c 3.755,65.158 56.096,117.499 121.254,121.254 z M 256,331.5 c -4.142,0 -7.5,3.358 -7.5,7.5 v 4.151 c -15.57,-1.317 -30.371,-6.72 -43.182,-15.844 -3.373,-2.402 -8.057,-1.616 -10.46,1.759 -2.402,3.374 -1.615,8.057 1.759,10.46 15.368,10.944 33.172,17.326 51.883,18.674 v 11.526 C 191.616,366.012 145.989,320.385 142.275,263.501 h 11.529 V 263.5 c 1.394,19.428 8.193,37.814 19.896,53.562 2.471,3.325 7.169,4.017 10.493,1.547 3.325,-2.471 4.018,-7.168 1.547,-10.493 -9.765,-13.141 -15.531,-28.437 -16.894,-44.616 H 173 c 4.142,0 7.5,-3.358 7.5,-7.5 0,-4.142 -3.358,-7.5 -7.5,-7.5 h -4.152 c 3.606,-42.263 37.388,-76.045 79.652,-79.651 V 173 c 0,4.142 3.358,7.5 7.5,7.5 4.142,0 7.5,-3.358 7.5,-7.5 v -4.151 c 42.263,3.606 76.045,37.388 79.651,79.651 H 339 c -4.142,0 -7.5,3.358 -7.5,7.5 0,4.142 3.358,7.5 7.5,7.5 h 4.151 c -3.606,42.264 -37.388,76.045 -79.651,79.652 V 339 c 0,-4.142 -3.358,-7.5 -7.5,-7.5 z m 102.2,-68 h 11.524 C 366.01,320.384 320.383,366.011 263.5,369.725 v -11.524 c 50.54,-3.674 91.027,-44.161 94.7,-94.701 z m 71.86,176.74 H 263.5 V 384.754 C 328.658,380.999 380.999,328.658 384.754,263.5 h 45.306 z m 0,-191.74 h -45.309 c -1.64,-28.136 -12.459,-55.063 -30.896,-76.518 -2.7,-3.141 -7.435,-3.499 -10.577,-0.8 -3.142,2.7 -3.5,7.435 -0.8,10.577 16.1,18.735 25.632,42.194 27.251,66.742 H 358.2 c -3.674,-50.54 -44.161,-91.027 -94.7,-94.7 v -11.515 c 21.817,1.407 42.489,8.928 60.176,22.003 3.331,2.463 8.027,1.759 10.489,-1.572 2.462,-3.331 1.758,-8.027 -1.572,-10.49 -20.288,-14.998 -44.04,-23.539 -69.093,-24.965 v -55.5 H 430.06 V 248.5 Z M 497,426.89 c 0,7.361 -5.989,13.35 -13.35,13.35 H 445.06 V 71.76 h 38.59 c 7.361,0 13.35,5.993 13.35,13.36 z"
   id="path116"
   inkscape:connector-curvature="0"
   sodipodi:nodetypes="ssssssssscccccccccccccssssccccccccsscccccccccccccsssccsssccsssccsscccccccccccccccccccccsccccccssccsss"
   style="fill:#b3414b;fill-opacity:1" />
	</g>
</g>
<g
   id="g122">
</g>
<g
   id="g124">
</g>
<g
   id="g126">
</g>
<g
   id="g128">
</g>
<g
   id="g130">
</g>
<g
   id="g132">
</g>
<g
   id="g134">
</g>
<g
   id="g136">
</g>
<g
   id="g138">
</g>
<g
   id="g140">
</g>
<g
   id="g142">
</g>
<g
   id="g144">
</g>
<g
   id="g146">
</g>
<g
   id="g148">
</g>
<g
   id="g150">
</g>
</svg>