<?xml version="1.0" encoding="UTF-8" standalone="no"?>
<!DOCTYPE svg PUBLIC "-//W3C//DTD SVG 1.1//EN" "http://www.w3.org/Graphics/SVG/1.1/DTD/svg11.dtd">
<svg version="1.1" xmlns="http://www.w3.org/2000/svg" xmlns:xlink="http://www.w3.org/1999/xlink" preserveAspectRatio="xMidYMid meet" viewBox="0 0 640 640" width="48" height="48"><defs><path d="M624.09 408.37C618.58 394.72 603.05 388.14 589.41 393.65C575.77 399.17 569.18 414.69 574.7 428.34C576.79 433.51 587.25 459.38 606.07 505.95C550.16 481.3 519.1 467.61 512.88 464.87C506.14 461.9 498.47 461.85 491.69 464.74C459.84 478.33 425.72 485.22 390.29 485.22C247.66 485.22 151.85 373.55 151.85 269.25C151.85 150.17 258.81 53.28 390.29 53.28C521.76 53.28 628.72 150.17 628.72 269.25C628.72 278.54 627.86 289.66 626.35 299.77C624.18 314.32 634.21 327.88 648.76 330.05C663.32 332.22 676.87 322.19 679.04 307.63C680.95 294.86 682 281.23 682 269.25C682 196.88 651.35 128.98 595.7 78.05C540.72 27.72 467.77 0 390.29 0C312.8 0 239.85 27.72 184.87 78.05C135.14 123.56 105.4 182.63 99.63 246.33C37.08 287.75 0 354.12 0 425.62C0 470.27 14.07 512.66 40.86 549.12C36.96 558.74 5.83 635.75 1.94 645.37C-2.12 655.43 0.31 666.94 8.1 674.49C13.17 679.4 19.86 682 26.65 682C30.27 682 33.93 681.26 37.39 679.74C48.61 674.79 138.36 635.23 149.58 630.28C177.81 640.79 207.64 646.1 238.43 646.1C239.1 646.1 239.76 646.05 240.41 646C284.95 645.67 328.25 633.95 365.75 612.03C399.34 592.39 426.97 565.41 446.34 533.55C465.25 530.15 483.74 525.02 501.69 518.16C515.98 524.46 630.32 574.87 644.61 581.17C648.07 582.69 651.72 583.43 655.35 583.43C662.14 583.43 668.83 580.83 673.9 575.92C681.69 568.37 684.12 556.86 680.05 546.8C668.86 519.12 635.29 436.05 624.09 408.37ZM237.36 592.81C210.15 592.67 183.97 587.32 159.52 576.89C152.74 574 145.06 574.04 138.32 577.01C134.16 578.85 113.36 588.02 75.93 604.52C88.01 574.65 94.72 558.05 96.06 554.73C99.78 545.53 98.07 535.02 91.63 527.46C66.54 498.03 53.28 462.81 53.28 425.62C53.28 383.04 71.19 342.71 102.52 312.12C112.28 365.3 139.81 416.17 181.33 456.14C233 505.86 301.35 534.68 375.15 538.15C340.5 572.25 290.92 592.75 238.43 592.75C238.07 592.75 237.72 592.79 237.36 592.81ZM428.91 294.38C443.63 294.38 455.55 306.3 455.55 321.02C455.55 335.73 443.63 347.66 428.91 347.66C412.93 347.66 285.05 347.66 269.07 347.66C254.36 347.66 242.43 335.73 242.43 321.02C242.43 306.3 254.36 294.38 269.07 294.38C301.04 294.38 396.95 294.38 428.91 294.38ZM269.07 241.1C254.36 241.1 242.43 229.17 242.43 214.46C242.43 199.74 254.36 187.82 269.07 187.82C293.05 187.82 484.86 187.82 508.84 187.82C523.55 187.82 535.48 199.74 535.48 214.46C535.48 229.17 523.55 241.1 508.84 241.1C460.88 241.1 293.05 241.1 269.07 241.1Z" id="c18OskLsuY"></path></defs><g><g><g><use xlink:href="#c18OskLsuY" opacity="1" fill="#cf3f49" fill-opacity="1"></use><g><use xlink:href="#c18OskLsuY" opacity="1" fill-opacity="0" stroke="#000000" stroke-width="1" stroke-opacity="0"></use></g></g></g></g></svg>