<?xml version="1.0" encoding="UTF-8" standalone="no"?>
<svg
   xmlns:dc="http://purl.org/dc/elements/1.1/"
   xmlns:cc="http://creativecommons.org/ns#"
   xmlns:rdf="http://www.w3.org/1999/02/22-rdf-syntax-ns#"
   xmlns:svg="http://www.w3.org/2000/svg"
   xmlns="http://www.w3.org/2000/svg"
   xmlns:sodipodi="http://sodipodi.sourceforge.net/DTD/sodipodi-0.dtd"
   xmlns:inkscape="http://www.inkscape.org/namespaces/inkscape"
   viewBox="-42 0 512 512.001"
   version="1.1"
   id="svg6"
   sodipodi:docname="user-white.svg"
   inkscape:version="0.92.4 (5da689c313, 2019-01-14)">
  <metadata
     id="metadata12">
    <rdf:RDF>
      <cc:Work
         rdf:about="">
        <dc:format>image/svg+xml</dc:format>
        <dc:type
           rdf:resource="http://purl.org/dc/dcmitype/StillImage" />
        <dc:title />
      </cc:Work>
    </rdf:RDF>
  </metadata>
  <defs
     id="defs10" />
  <sodipodi:namedview
     pagecolor="#ffffff"
     bordercolor="#666666"
     borderopacity="1"
     objecttolerance="10"
     gridtolerance="10"
     guidetolerance="10"
     inkscape:pageopacity="0"
     inkscape:pageshadow="2"
     inkscape:window-width="1366"
     inkscape:window-height="695"
     id="namedview8"
     showgrid="false"
     inkscape:zoom="0.46093662"
     inkscape:cx="-111.72952"
     inkscape:cy="256.00049"
     inkscape:window-x="0"
     inkscape:window-y="0"
     inkscape:window-maximized="1"
     inkscape:current-layer="svg6" />
  <path
     style="fill:#ffffff"
     d="M 206.26758,-8.0527344 C 147.07915,-7.4974095 92.032467,38.895163 81.47443,97.150236 c -9.077753,43.812884 5.746374,91.887474 38.96112,122.119294 32.15815,30.72672 80.4397,42.87146 123.34765,31.28711 47.23608,-11.98351 85.7971,-52.31485 95.26277,-100.17384 C 348.18411,108.50839 335.16009,62.604957 304.97964,32.082939 279.65575,5.4162696 243.02999,-9.5531016 206.26758,-8.0527344 Z m 6.77344,45.8886724 c 43.35909,0.194785 82.5369,39.144882 82.73828,82.324222 1.79028,34.71651 -20.27925,69.58581 -52.99805,82.37304 -32.09464,13.15412 -71.95132,5.05704 -95.17187,-21.10547 -24.65099,-26.15722 -30.26526,-68.16166 -12.13543,-99.491095 15.28859,-27.531711 45.86979,-45.64713 77.56707,-44.100697 z"
     id="path2"
     inkscape:connector-curvature="0" />
  <path
     style="fill:#ffffff"
     d="m 108.23242,239.30859 c -38.029339,0.49863 -74.270832,24.27832 -90.481399,58.59664 -21.4533822,40.39166 -25.9706585,87.25014 -25.6748491,132.26469 1.1259632,27.41029 13.3296245,55.24987 36.3144531,71.17578 21.289215,15.64153 48.654242,20.45813 74.560545,18.53449 83.06726,-0.0893 166.16111,0.87932 249.21094,-0.61066 36.76807,-3.66505 71.81275,-30.54607 79.61719,-67.54492 7.0434,-30.31144 2.15025,-61.73723 -1.95813,-92.0897 -6.48247,-36.85577 -20.75763,-74.96683 -50.72742,-99.10561 -19.75001,-15.10664 -45.50797,-23.53732 -70.36328,-20.20899 -20.12794,5.44882 -34.17762,22.48294 -53.63359,29.48793 -29.79503,12.79592 -64.76952,11.15336 -92.99168,-4.81255 -15.55791,-8.48449 -29.23638,-21.73817 -46.96653,-25.54647 -2.29515,-0.22402 -4.60423,-0.16841 -6.90625,-0.14063 z m 211.93164,46.12305 c 22.37091,0.93513 42.40448,17.32856 50.60674,37.97477 15.89823,33.25118 18.50147,70.54177 18.2624,106.86703 -1.00482,17.10651 -11.2566,34.43277 -28.23437,39.70508 -20.66438,7.43684 -43.59316,2.72327 -65.24804,3.95471 -72.99587,-0.2862 -146.04602,1.0608 -219.005868,-0.86096 -20.107704,-3.06682 -38.07596,-20.49312 -37.964844,-41.53907 -2.030313,-27.90493 1.856169,-55.98768 8.331142,-83.00098 6.154302,-22.48123 17.34995,-46.86732 39.381749,-57.79199 7.109912,-3.06452 15.515201,-5.88386 23.009111,-4.5771 25.99176,17.84332 54.59266,33.98061 86.48112,37.30171 40.39924,4.95565 81.55099,-8.34782 114.02539,-32.24023 3.31384,-2.07666 6.51609,-4.92435 10.35547,-5.79297 z"
     id="path4"
     inkscape:connector-curvature="0" />
</svg>
