<?xml version="1.0" encoding="utf-8"?>
<!-- Generator: Adobe Illustrator 22.0.0, SVG Export Plug-In . SVG Version: 6.00 Build 0)  -->
<svg version="1.1" id="Слой_1" xmlns="http://www.w3.org/2000/svg" xmlns:xlink="http://www.w3.org/1999/xlink" x="0px" y="0px"
	 viewBox="0 0 60 60" style="enable-background:new 0 0 60 60;" xml:space="preserve">
<style type="text/css">
	.st0{fill:#B3414B;stroke:#000000;stroke-width:1.15;stroke-linecap:round;stroke-linejoin:round;}
	.st1{fill:none;stroke:#000000;stroke-width:1.15;stroke-linecap:round;stroke-linejoin:round;}
	.st2{fill:#24527C;stroke:#000000;stroke-width:1.15;stroke-linecap:round;stroke-linejoin:round;}
</style>
<path class="st0" d="M29.9,27.2L18,15.3l-2.9,3c1.5,1.5,1.5,4,0,5.5s-3.9,1.5-5.4,0l0,0l-2.9,3l15,15.2l3.3-3.4"/>
<title>tickets</title>
<line class="st1" x1="24.7" y1="22" x2="22.4" y2="24.4"/>
<line class="st1" x1="15.7" y1="31.1" x2="13.4" y2="33.4"/>
<line class="st1" x1="20.3" y1="26.5" x2="18" y2="28.8"/>
<line class="st1" x1="46.4" y1="33.3" x2="44.2" y2="31"/>
<line class="st1" x1="37.5" y1="24.2" x2="35.2" y2="21.9"/>
<line class="st1" x1="42.1" y1="28.9" x2="39.8" y2="26.5"/>
<path class="st2" d="M50.5,23.3c-1.5,1.5-3.9,1.5-5.4,0l0,0c-1.5-1.5-1.5-4,0-5.5l-2.9-3L21.9,35.3l11.3,11.4l20.2-20.5L50.5,23.3z"
	/>
<line class="st1" x1="39.5" y1="35.3" x2="33" y2="41.8"/>
<line class="st1" x1="34.1" y1="36.6" x2="30.9" y2="39.7"/>
</svg>
